<svg width="48.000000" height="48.000000" viewBox="0 0 48 48" fill="none" xmlns="http://www.w3.org/2000/svg" xmlns:xlink="http://www.w3.org/1999/xlink">
	<desc>
			Created with Pixso.
	</desc>
	<defs>
		<clipPath id="clip16_1460">
			<rect id="Icon" width="48.000000" height="48.000000" fill="white" fill-opacity="0"/>
		</clipPath>
	</defs>
	<g clip-path="url(#clip16_1460)">
		<path id="Vector" d="M24.22 29.41C26.1 27.83 27.45 25.7 28.09 23.33C28.72 20.95 28.61 18.43 27.77 16.12C26.93 13.81 25.39 11.81 23.37 10.4C21.36 8.99 18.96 8.23 16.5 8.23C14.03 8.23 11.63 8.99 9.62 10.4C7.6 11.81 6.06 13.81 5.22 16.12C4.38 18.43 4.27 20.95 4.9 23.33C5.54 25.7 6.89 27.83 8.77 29.41C5.72 30.8 3.09 32.97 1.16 35.71C0.82 36.2 0.68 36.8 0.78 37.39C0.88 37.98 1.21 38.5 1.7 38.84C2.08 39.11 2.53 39.26 3 39.26C3.36 39.26 3.71 39.17 4.03 39.01C4.35 38.84 4.63 38.6 4.83 38.3C6.15 36.43 7.89 34.9 9.92 33.85C11.95 32.79 14.21 32.24 16.5 32.24C18.78 32.24 21.04 32.79 23.07 33.85C25.1 34.9 26.84 36.43 28.16 38.3C28.32 38.56 28.53 38.78 28.79 38.95C29.04 39.13 29.32 39.25 29.62 39.3C29.92 39.36 30.23 39.36 30.52 39.3C30.82 39.24 31.11 39.11 31.35 38.94C31.6 38.76 31.81 38.54 31.97 38.28C32.13 38.02 32.24 37.73 32.28 37.43C32.33 37.13 32.31 36.82 32.23 36.52C32.16 36.23 32.02 35.95 31.83 35.71C29.9 32.97 27.27 30.8 24.22 29.41ZM9 20.24C9 18.76 9.43 17.31 10.26 16.08C11.08 14.84 12.25 13.88 13.62 13.32C15 12.75 16.5 12.6 17.96 12.89C19.41 13.18 20.75 13.89 21.8 14.94C22.85 15.99 23.56 17.33 23.85 18.78C24.14 20.24 23.99 21.74 23.42 23.12C22.86 24.49 21.9 25.66 20.66 26.48C19.43 27.31 17.98 27.74 16.5 27.74C14.51 27.74 12.6 26.95 11.19 25.55C9.79 24.14 9 22.23 9 20.24ZM46.57 38.84C46.19 39.11 45.74 39.26 45.28 39.26C44.92 39.26 44.56 39.17 44.24 39C43.92 38.84 43.65 38.59 43.44 38.3C42.12 36.43 40.37 34.91 38.35 33.85C36.32 32.8 34.06 32.25 31.78 32.24C31.18 32.24 30.61 32.01 30.19 31.59C29.76 31.16 29.53 30.59 29.53 29.99C29.53 29.4 29.76 28.83 30.19 28.4C30.61 27.98 31.18 27.74 31.78 27.74C33.77 27.74 35.67 26.95 37.08 25.55C38.49 24.14 39.28 22.23 39.28 20.24C39.28 18.26 38.49 16.35 37.08 14.94C35.67 13.54 33.77 12.74 31.78 12.74C31.09 12.74 30.41 12.84 29.75 13.03C29.47 13.11 29.17 13.14 28.87 13.11C28.57 13.08 28.28 12.99 28.02 12.84C27.76 12.7 27.53 12.5 27.35 12.27C27.16 12.04 27.02 11.77 26.94 11.48C26.86 11.19 26.84 10.89 26.87 10.6C26.91 10.3 27.01 10.01 27.15 9.75C27.3 9.5 27.5 9.27 27.74 9.09C27.97 8.9 28.24 8.77 28.53 8.69C29.59 8.39 30.68 8.24 31.78 8.24C34.24 8.24 36.64 8.99 38.66 10.4C40.69 11.81 42.22 13.81 43.07 16.12C43.91 18.43 44.02 20.95 43.38 23.33C42.75 25.71 41.39 27.83 39.5 29.41C42.56 30.8 45.18 32.97 47.11 35.71C47.29 35.95 47.41 36.23 47.47 36.51C47.54 36.8 47.55 37.1 47.5 37.39C47.45 37.68 47.34 37.96 47.18 38.21C47.02 38.46 46.81 38.68 46.57 38.84Z" fill="#4CAF4F" fill-opacity="1.000000" fill-rule="nonzero"/>
		<path id="Vector" d="" fill="#4CAF4F" fill-opacity="1.000000" fill-rule="evenodd"/>
	</g>
</svg>
