<svg width="48.000000" height="48.000000" viewBox="0 0 48 48" fill="none" xmlns="http://www.w3.org/2000/svg" xmlns:xlink="http://www.w3.org/1999/xlink">
	<desc>
			Created with Pixso.
	</desc>
	<defs>
		<clipPath id="clip16_1464">
			<rect id="Icon" width="48.000000" height="48.000000" fill="white" fill-opacity="0"/>
		</clipPath>
	</defs>
	<rect id="Icon" width="48.000000" height="48.000000" fill="#FFFFFF" fill-opacity="0"/>
	<g clip-path="url(#clip16_1464)">
		<path id="Vector" d="M3 14.25C3 12.45 3.71 10.74 4.97 9.47C6.24 8.21 7.95 7.5 9.75 7.5L38.25 7.5C40.04 7.5 41.75 8.21 43.02 9.47C44.28 10.74 45 12.45 45 14.25L45 33.75C45 35.54 44.28 37.25 43.02 38.52C41.75 39.78 40.04 40.5 38.25 40.5L9.75 40.5C7.95 40.5 6.24 39.78 4.97 38.52C3.71 37.25 3 35.54 3 33.75L3 14.25ZM9.75 10.5C8.75 10.5 7.8 10.89 7.09 11.59C6.39 12.3 6 13.25 6 14.25L6 16.5L42 16.5L42 14.25C42 13.25 41.6 12.3 40.9 11.59C40.19 10.89 39.24 10.5 38.25 10.5L9.75 10.5ZM6 33.75C6 34.74 6.39 35.69 7.09 36.4C7.8 37.1 8.75 37.5 9.75 37.5L38.25 37.5C39.24 37.5 40.19 37.1 40.9 36.4C41.6 35.69 42 34.74 42 33.75L42 19.5L6 19.5L6 33.75ZM31.5 28.5L36 28.5C36.39 28.5 36.77 28.65 37.06 28.93C37.34 29.22 37.5 29.6 37.5 30C37.5 30.39 37.34 30.77 37.06 31.06C36.77 31.34 36.39 31.5 36 31.5L31.5 31.5C31.1 31.5 30.72 31.34 30.43 31.06C30.15 30.77 30 30.39 30 30C30 29.6 30.15 29.22 30.43 28.93C30.72 28.65 31.1 28.5 31.5 28.5Z" fill="#4CAF4F" fill-opacity="1.000000" fill-rule="nonzero"/>
		<path id="Vector" d="" fill="#4CAF4F" fill-opacity="1.000000" fill-rule="evenodd"/>
	</g>
</svg>
