<svg width="48.000000" height="48.000000" viewBox="0 0 48 48" fill="none" xmlns="http://www.w3.org/2000/svg" xmlns:xlink="http://www.w3.org/1999/xlink">
	<desc>
			Created with Pixso.
	</desc>
	<defs/>
	<path id="Vector" d="M28.31 23.64C28.07 23.64 27.84 23.57 27.64 23.47L27.64 23.47C27.64 23.85 27.5 24.2 27.23 24.47C26.96 24.74 26.61 24.89 26.23 24.89C25.98 24.89 25.76 24.82 25.56 24.71C25.54 25.05 25.4 25.38 25.15 25.63C24.88 25.89 24.53 26.04 24.15 26.04C23.4 26.04 22.79 25.45 22.74 24.71C22.51 24.83 22.25 24.9 21.97 24.88C21.23 24.83 20.66 24.19 20.66 23.43L20.66 17.06L19.93 18.32C19.65 18.8 19.14 19.09 18.58 19.09C18.31 19.09 18.04 19.02 17.8 18.89C17.51 18.72 17.3 18.44 17.21 18.11C17.12 17.78 17.17 17.44 17.34 17.14C17.34 17.14 19.71 13.04 19.85 12.78C19.87 12.75 19.92 12.64 19.96 12.54C20 12.45 20.04 12.36 20.07 12.27C20.78 10.25 22.56 8.99 24.69 8.99C27.47 8.99 29.72 11.44 29.72 14.45L29.72 22.22C29.72 22.6 29.58 22.96 29.31 23.23C29.04 23.49 28.69 23.64 28.31 23.64L28.31 23.64ZM24.69 9.75C22.86 9.75 21.39 10.78 20.78 12.52C20.74 12.63 20.7 12.74 20.65 12.85C20.51 13.16 20.51 13.16 20.47 13.2L20.47 13.2C20.27 13.57 19.7 14.56 17.99 17.52C17.92 17.64 17.9 17.78 17.94 17.92C17.97 18.05 18.06 18.17 18.18 18.23C18.55 18.45 19.07 18.31 19.28 17.94L20.71 15.47C20.79 15.32 20.96 15.25 21.13 15.29C21.29 15.34 21.41 15.49 21.41 15.66L21.41 23.43C21.41 23.79 21.68 24.11 22.02 24.13C22.22 24.14 22.4 24.08 22.54 23.94C22.67 23.81 22.73 23.65 22.73 23.47L22.73 18.39C22.73 18.18 22.9 18.01 23.11 18.01C23.32 18.01 23.49 18.18 23.49 18.39L23.49 24.63C23.49 24.99 23.78 25.29 24.15 25.29C24.33 25.29 24.49 25.22 24.62 25.09C24.74 24.97 24.81 24.8 24.81 24.63L24.81 18.39C24.81 18.18 24.98 18.01 25.19 18.01C25.4 18.01 25.57 18.18 25.57 18.39L25.56 23.41L25.56 23.47C25.56 23.84 25.86 24.13 26.23 24.13C26.41 24.13 26.57 24.06 26.7 23.94C26.82 23.81 26.89 23.65 26.89 23.47L26.89 18.39C26.89 18.18 27.06 18.01 27.27 18.01C27.48 18.01 27.64 18.18 27.64 18.39L27.64 22.22C27.64 22.59 27.94 22.89 28.31 22.89C28.48 22.89 28.65 22.82 28.78 22.69C28.9 22.57 28.97 22.4 28.97 22.22L28.97 14.45C28.97 11.86 27.05 9.75 24.69 9.75L24.69 9.75Z" fill="#4CAF4F" fill-opacity="1.000000" fill-rule="nonzero"/>
	<path id="Vector" d="" fill="#4CAF4F" fill-opacity="1.000000" fill-rule="evenodd"/>
	<path id="Vector" d="M13.52 29.04L18.98 25.77C19.64 25.37 20.49 25.54 20.91 26.15C21.07 26.37 21.14 26.63 21.16 26.9C21.36 26.79 21.58 26.73 21.81 26.73C21.92 26.73 22.04 26.75 22.15 26.77C22.52 26.87 22.83 27.1 23.02 27.42C23.22 27.74 23.27 28.12 23.18 28.49C23.1 28.83 22.89 29.12 22.61 29.31C22.81 29.43 22.98 29.59 23.1 29.8C23.3 30.12 23.35 30.5 23.26 30.87C23.17 31.23 22.94 31.54 22.62 31.74L22.61 31.74C22.81 31.86 22.98 32.02 23.1 32.22C23.3 32.54 23.35 32.92 23.26 33.29C23.17 33.66 22.94 33.97 22.62 34.16L15.95 38.16C14.71 38.91 13.27 39.16 11.9 38.89C10.52 38.6 9.38 37.81 8.69 36.65C7.59 34.82 7.75 32.66 9.11 31.01C9.18 30.93 9.24 30.85 9.29 30.77C9.35 30.69 9.42 30.59 9.45 30.56C9.59 30.3 11.89 26.16 11.89 26.16C12.12 25.74 12.56 25.5 13.01 25.5C13.22 25.5 13.43 25.55 13.63 25.66C13.86 25.79 14.06 25.98 14.2 26.22C14.49 26.69 14.5 27.29 14.23 27.77L13.52 29.04ZM13.56 26.6C13.48 26.48 13.38 26.39 13.26 26.32C13.01 26.18 12.69 26.27 12.55 26.52C10.9 29.49 10.34 30.5 10.12 30.86L10.13 30.86C10.11 30.92 10.11 30.92 9.91 31.21C9.84 31.3 9.77 31.39 9.69 31.48C8.52 32.9 8.39 34.69 9.33 36.27C9.91 37.24 10.88 37.91 12.05 38.15C13.23 38.39 14.48 38.16 15.56 37.52L22.23 33.52C22.38 33.43 22.49 33.28 22.53 33.11C22.58 32.94 22.55 32.76 22.46 32.61C22.27 32.29 21.86 32.19 21.55 32.38L18.26 34.35C18.08 34.46 17.85 34.4 17.74 34.22C17.64 34.04 17.69 33.81 17.87 33.71L21.16 31.73L22.23 31.09C22.38 31 22.49 30.86 22.53 30.69C22.58 30.51 22.55 30.33 22.46 30.18C22.27 29.87 21.86 29.77 21.55 29.96L17.19 32.57C17.01 32.68 16.78 32.62 16.67 32.44C16.57 32.26 16.62 32.03 16.8 31.92L22.15 28.72C22.3 28.62 22.41 28.48 22.45 28.31C22.5 28.14 22.47 27.96 22.38 27.81C22.29 27.65 22.14 27.55 21.97 27.5C21.8 27.46 21.62 27.49 21.47 27.58L20.48 28.17C20.48 28.17 20.48 28.17 20.48 28.17L20.48 28.17L16.12 30.79C15.94 30.89 15.71 30.84 15.6 30.66C15.5 30.48 15.56 30.25 15.73 30.14L20.09 27.53C20.24 27.44 20.35 27.29 20.39 27.12C20.44 26.93 20.4 26.74 20.29 26.58C20.1 26.3 19.68 26.22 19.37 26.41L12.71 30.41C12.56 30.5 12.38 30.48 12.25 30.36C12.13 30.24 12.1 30.05 12.19 29.9L13.57 27.41C13.71 27.16 13.71 26.85 13.56 26.6L13.56 26.6Z" fill="#4CAF4F" fill-opacity="1.000000" fill-rule="nonzero"/>
	<path id="Vector" d="" fill="#4CAF4F" fill-opacity="1.000000" fill-rule="evenodd"/>
	<path id="Vector" d="M39.61 36.65C38.92 37.81 37.78 38.6 36.4 38.89C35.03 39.16 33.59 38.91 32.35 38.16L25.68 34.16C25.36 33.97 25.13 33.66 25.04 33.29C24.94 32.92 25 32.54 25.2 32.22C25.32 32.02 25.49 31.86 25.68 31.74L25.68 31.74C25.36 31.54 25.13 31.23 25.04 30.87C24.95 30.5 25 30.12 25.2 29.8C25.32 29.59 25.49 29.42 25.69 29.31C25.41 29.11 25.2 28.83 25.12 28.49C25.02 28.12 25.08 27.74 25.28 27.42C25.47 27.09 25.78 26.87 26.15 26.77C26.26 26.75 26.38 26.73 26.49 26.73C26.72 26.73 26.94 26.79 27.14 26.9C27.15 26.63 27.23 26.37 27.39 26.15C27.81 25.54 28.66 25.37 29.32 25.77L34.77 29.04L34.07 27.77C33.8 27.29 33.81 26.69 34.1 26.22C34.24 25.98 34.44 25.79 34.67 25.66C34.87 25.55 35.08 25.5 35.29 25.5C35.74 25.5 36.18 25.74 36.41 26.15C37.22 27.61 38.75 30.36 38.85 30.56C38.88 30.59 38.95 30.69 39 30.77C39.06 30.85 39.12 30.93 39.18 31C40.55 32.66 40.71 34.82 39.61 36.65L39.61 36.65ZM38.6 31.48C38.53 31.39 38.46 31.3 38.39 31.21C38.19 30.92 38.18 30.91 38.16 30.83C37.93 30.44 37.35 29.39 35.75 26.52C35.61 26.27 35.29 26.18 35.04 26.32C34.91 26.39 34.81 26.48 34.74 26.6C34.59 26.85 34.59 27.16 34.73 27.41L36.11 29.9C36.2 30.05 36.17 30.24 36.05 30.36C35.92 30.48 35.74 30.5 35.59 30.41L28.93 26.41C28.61 26.22 28.2 26.3 28.01 26.58C27.89 26.74 27.86 26.93 27.91 27.12C27.95 27.29 28.06 27.44 28.21 27.53C28.21 27.53 28.21 27.53 28.21 27.53L32.57 30.14C32.74 30.25 32.8 30.48 32.69 30.66C32.59 30.84 32.36 30.89 32.18 30.79L26.83 27.58C26.68 27.49 26.5 27.46 26.33 27.5C26.16 27.55 26.01 27.65 25.92 27.81C25.83 27.96 25.8 28.14 25.85 28.31C25.89 28.48 26 28.62 26.15 28.72L27.19 29.34L31.5 31.92C31.67 32.03 31.73 32.26 31.62 32.44C31.52 32.62 31.29 32.68 31.11 32.57L26.75 29.96C26.44 29.77 26.03 29.87 25.84 30.18C25.75 30.34 25.72 30.51 25.77 30.69C25.81 30.86 25.92 31 26.07 31.09L27.14 31.73L30.43 33.71C30.6 33.81 30.66 34.04 30.55 34.22C30.45 34.4 30.22 34.46 30.04 34.35L26.75 32.38C26.6 32.29 26.42 32.26 26.25 32.3C26.08 32.35 25.93 32.45 25.84 32.61C25.75 32.76 25.72 32.94 25.76 33.11C25.81 33.28 25.92 33.42 26.07 33.52L32.73 37.52C33.82 38.16 35.06 38.39 36.25 38.15C37.42 37.91 38.38 37.24 38.97 36.27C39.91 34.69 39.78 32.9 38.6 31.48L38.6 31.48Z" fill="#4CAF4F" fill-opacity="1.000000" fill-rule="nonzero"/>
	<path id="Vector" d="" fill="#4CAF4F" fill-opacity="1.000000" fill-rule="evenodd"/>
</svg>
